# xmcd
#
# Track frame offsets: 
#        150
#        22404
#        34221
#        49993
#        67981
#        78787
#        91598
#        107351
#        120318
#        133043
#
# Disc length: 1927 seconds
#
# Revision: 0
# Processed by: cddbd v1.5.2PL0 Copyright (c) Steve Scherf et al.
# Submitted via: ExactAudioCopy v0.99pb4
#
DISCID=7707850a
DTITLE=Cameron Latimer - Fallen Apart
DYEAR=2008
DGENRE=Country
TTITLE0=Empty Saddle
TTITLE1=Heartbreaker
TTITLE2=The Ranch
TTITLE3=Fallen Apart
TTITLE4=Division Day
TTITLE5=Gin Train
TTITLE6=The Beach House
TTITLE7=High Lonesome
TTITLE8=Hayfield
TTITLE9=Who Shot My Paw
EXTD=
EXTT0=
EXTT1=
EXTT2=
EXTT3=
EXTT4=
EXTT5=
EXTT6=
EXTT7=
EXTT8=
EXTT9=
PLAYORDER=
